PathFileType	4	(X/Y/Z)	AB06\squats_1.trc
DataRate	CameraRate	NumFrames	NumMarkers	Units	OrigDataRate	OrigDataStartFrame	OrigNumFrames
200.000000	200.000000	4	35	mm	200.000000	196	392
Frame#	Time	C7			LSHO			LASI			RASI			LPSI			RPSI			LGTR			RGTR			LTHC			LTHL			LTHR			LKNE			LMKNE			LSHC			LSHL			LSHR			LANK			LMANK			LMT1			LMT5			LCAL			RTHC			RTHL			RTHR			RKNE			RMKNE			RSHC			RSHL			RSHR			RANK			RMANK			RMT1			RMT5			RCAL			STRN			
		X1	Y1	Z1	X2	Y2	Z2	X3	Y3	Z3	X4	Y4	Z4	X5	Y5	Z5	X6	Y6	Z6	X7	Y7	Z7	X8	Y8	Z8	X9	Y9	Z9	X10	Y10	Z10	X11	Y11	Z11	X12	Y12	Z12	X13	Y13	Z13	X14	Y14	Z14	X15	Y15	Z15	X16	Y16	Z16	X17	Y17	Z17	X18	Y18	Z18	X19	Y19	Z19	X20	Y20	Z20	X21	Y21	Z21	X22	Y22	Z22	X23	Y23	Z23	X24	Y24	Z24	X25	Y25	Z25	X26	Y26	Z26	X27	Y27	Z27	X28	Y28	Z28	X29	Y29	Z29	X30	Y30	Z30	X31	Y31	Z31	X32	Y32	Z32	X33	Y33	Z33	X34	Y34	Z34	X35	Y35	Z35	

197	45.885	-3641.49535965729	1001.964227786081	2498.625537536718	-3697.96733704918	900.0671596807753	2646.406524452963	-3381.030760235577	572.736623990421	2619.081638415877	-3384.071262087471	583.9157117769702	2355.980910461861	-3198.522216224535	592.8662282373782	2531.44167893006	-3201.777855068478	599.9965103007752	2439.141335266197	-3302.280550318145	561.6326612979877	2685.078468989595	-3325.288912816025	591.7061046503323	2314.804543978432	-3380.349419461007	542.0104552591229	2715.274109753073	-3509.717734116217	584.7491466965215	2667.133796068619	-3478.570958160131	416.0207549384948	2743.255608860816	-3684.311630812404	488.0516462946343	2839.070838599334	-3744.526991674998	476.6546158006792	2730.23854858543	-3595.83001866823	428.8010369723759	2821.813293521794	-3580.713375130813	201.494081973643	2768.317902350166	-3494.99386008071	247.5955427004445	2735.855945317016	-3463.010820076808	103.7220348099408	2767.406600615258	-3496.636982728885	113.0256015113223	2685.48176972812	-3618.517312944986	49.30555799411372	2715.163473260568	-3567.339111750357	51.08143473787788	2828.623717604494	-3394.955426919003	79.63526357533343	2715.257778610101	-3531.871181758219	420.6469332393033	2247.76780959314	-3436.016250361258	533.9230237035898	2245.795205064252	-3537.924321734401	566.7411917371612	2360.467772779113	-3722.348241632505	488.4402669097144	2191.509857243311	-3763.287596299539	472.7388416480097	2304.443816525812	-3524.602988179884	247.4897246249468	2274.688577812469	-3648.771977545368	420.7011767076478	2182.296024484213	-3610.822584417263	198.5169201117485	2252.571733827036	-3494.819762991801	108.7311496275757	2237.877675119434	-3529.354949650447	113.8351180224266	2322.296457512138	-3643.533616168567	52.04788182733254	2297.326744079675	-3607.586089314114	38.26019954739879	2179.781433281519	-3429.680238910183	80.195233806171	2281.220289664883	-3620.997085829567	693.7089553085442	2497.838142290494	
198	45.89	-3641.268226180144	1001.789563739238	2498.723037064007	-3697.700377216804	899.8593984695171	2646.447580635688	-3380.865068043488	572.5409833320469	2618.974031690561	-3383.978624642711	583.7061502134903	2355.82957307554	-3198.375677543007	592.5510691288727	2531.299232422991	-3201.650182855125	599.668497381727	2439.008257463761	-3302.110269412541	561.4034018709621	2684.974027292589	-3325.199902455008	591.4453909196055	2314.690625380925	-3380.240187356912	541.8253590583196	2715.13566044557	-3509.562479315371	584.6613977233399	2666.945355807784	-3478.553309337004	415.9177126577683	2743.104002043945	-3684.243618610282	488.0859304000454	2838.887998100462	-3744.450253883278	476.6899777471621	2730.042401498153	-3595.787050361801	428.8356420805756	2821.643552587835	-3580.756552786452	201.5090296898881	2768.160883188535	-3494.982415225126	247.5643422298018	2735.763690496862	-3463.010950122361	103.7252099498723	2767.379256726236	-3496.640228727461	112.9911312179965	2685.442077254956	-3618.519240641329	49.30422188573223	2715.167376665363	-3567.330927444285	51.09304430010541	2828.614380529735	-3394.960816105852	79.62511569530182	2715.230292566832	-3531.933570858187	420.5160288951042	2247.751935997484	-3436.003978616873	533.729018819573	2245.748176262312	-3537.835270789113	566.6041502862018	2360.469281665126	-3722.388396041782	488.427352467315	2191.576780460386	-3763.297651701242	472.7374507842613	2304.525836384912	-3524.62771265845	247.4758367195495	2274.72460353351	-3648.835562451159	420.6734848670191	2182.325094242357	-3610.862113619295	198.4934111447568	2252.651493016142	-3494.848862765324	108.72474037047	2237.905079762294	-3529.374601761112	113.8099856356379	2322.319140794315	-3643.566523117329	52.03528104414666	2297.307368784559	-3607.569605237983	38.26734579378494	2179.776895127013	-3429.701345697349	80.20548075864362	2281.256261614854	-3620.768398270715	693.5469907298731	2497.802012850661	
199	45.895	-3641.040706717888	1001.688755531084	2498.81703197642	-3697.433848702287	899.7278008875951	2646.483970827489	-3380.701547318626	572.4084078393182	2618.866457516361	-3383.89432464979	583.5552490980366	2355.685526249798	-3198.232754601993	592.3153001431659	2531.154308541682	-3201.529291458533	599.4195924576156	2438.870355436369	-3301.941312122533	561.2426418033938	2684.870214959649	-3325.120410018124	591.2513933125092	2314.574006589718	-3380.13787984707	541.6920533670992	2715.000223526894	-3509.416619124911	584.609023694785	2666.764109309713	-3478.526823980428	415.8526042701093	2742.95102589112	-3684.172166120429	488.1238519660252	2838.704831867552	-3744.371177166335	476.726386487369	2729.848343816792	-3595.747037705962	428.8716920720955	2821.475599180531	-3580.795136418621	201.5244363157636	2768.010435232953	-3494.966323030501	247.5335209485183	2735.677547331654	-3463.008493281935	103.7291125063614	2767.353272106181	-3496.641661568421	112.9558184344676	2685.401565183911	-3618.520391577135	49.30362076409936	2715.171792773664	-3567.321661124204	51.10459270362379	2828.605121120266	-3394.964592314599	79.61474313861325	2715.201360928379	-3531.994821667251	420.4159974460759	2247.747522455004	-3436.004626973539	533.5785246808216	2245.701970210117	-3537.75896426933	566.5031838329863	2360.473877801501	-3722.437346266714	488.4131401026364	2191.659689272907	-3763.309829348327	472.7336593573629	2304.623794042265	-3524.65336941502	247.4624203395238	2274.760333413148	-3648.90784392393	420.6461656814006	2182.367895350908	-3610.903075632874	198.4664240610596	2252.741071312836	-3494.879187014642	108.7181911629808	2237.933830655573	-3529.395407200571	113.7830362531961	2322.343448311166	-3643.600305126881	52.02120306277906	2297.288651704006	-3607.554413633483	38.27415995933012	2179.773431654751	-3429.722529322964	80.21558022891311	2281.292203280028	-3620.54092411458	693.4643406192802	2497.765246846121	
200	45.9	-3640.812574852657	1001.661459047492	2498.906437532059	-3697.167512167261	899.6724052112434	2646.515638612753	-3380.539820209984	572.3387610648477	2618.759107923281	-3383.818289730003	583.4630610807372	2355.55000986228	-3198.093295711	592.1589997829494	2531.006887939834	-3201.41532822877	599.2502791089466	2438.727661502289	-3301.772968213013	561.1505589733772	2684.767127275677	-3325.050706736422	591.1250992646927	2314.454967018831	-3380.0415219855	541.6103363171662	2714.868138164012	-3509.279549616971	584.5919080212648	2666.591186134915	-3478.490593036156	415.8253466209258	2742.797156342363	-3684.096225827273	488.1659184151349	2838.522969077888	-3744.289159249886	476.7644906635453	2729.658123798672	-3595.70879682868	428.9088562620698	2821.310689117224	-3580.827614032312	201.5403843002513	2767.868918811515	-3494.945200400882	247.5034116909077	2735.598011521983	-3463.003267143338	103.7336164502689	2767.328775427841	-3496.641296750798	112.9200392587335	2685.360684365785	-3618.520847128391	49.30391283338786	2715.17682254867	-3567.311165168378	51.11600510498057	2828.59608903677	-3394.966727716024	79.60416314548559	2715.171321753558	-3532.054551243108	420.3472738303115	2247.754249733311	-3436.017895606501	533.4721291761986	2245.656613367431	-3537.695803855206	566.4386231246939	2360.481296030252	-3722.494657736365	488.397451680015	2191.757840186122	-3763.323958532497	472.7273886909325	2304.737163301456	-3524.679728284978	247.4495026601084	2274.795363752432	-3648.988540823646	420.6191766384206	2182.423815082489	-3610.9451676145	198.4360883604587	2252.839515205213	-3494.910425687845	108.7113940361728	2237.963565302131	-3529.417151657985	113.7545969850668	2322.369185108557	-3643.634493393588	52.00575023000776	2297.270631779353	-3607.540485000729	38.28060884719073	2179.771035778413	-3429.743560451694	80.22543884642009	2281.327791749335	-3620.314804663279	693.4604520112717	2497.728168795675	
